<svg width="449" height="207" fill="#853ad0" viewBox="0 0 449 207" xmlns="http://www.w3.org/2000/svg">
<path d="M150.427 183.5C171.927 204 189.927 207 189.927 207C189.927 207 172.927 195 176.427 182C196.927 195 215.927 192 215.927 192C208.427 191.5 201.927 169 201.927 169C198.427 158.5 199.927 143 199.927 143C200.427 129.5 207.927 115 207.927 115C226.927 130.5 229.927 157 229.927 157C232.927 160.5 230.927 180 230.927 180C235.427 180.5 251.927 152 251.927 152C258.927 169.5 246.427 200.5 246.427 200.5C277.427 172 275.927 143 275.927 143C276.427 126.5 267.927 111 267.927 111C263.427 101 251.427 87.5 251.427 87.5C256.927 102 252.427 115 252.427 115C247.427 131 243.427 129.5 243.427 129.5C242.427 123 241.427 117.5 241.427 117.5C240.427 109.5 229.427 88.5 229.427 88.5C214.427 66 219.427 45.5 219.427 45.5C219.927 30 240.427 0 240.427 0L221.427 13.5C195.427 34 186.927 47 186.927 47C164.927 80.5 164.927 96.5 164.927 96.5C158.427 109 162.927 146 162.927 146C148.427 135.5 148.427 96.5 148.427 96.5C136.427 129.5 138.927 129.5 138.927 129.5C130.927 160 150.427 183.5 150.427 183.5Z"/>
<path d="M307.927 145C298.427 168 271.927 195 271.927 195C271.927 195 286.927 174.5 290.927 158.5C290.927 158.5 292.927 146.5 291.927 143.5C293.427 136.5 285.927 118.5 285.927 118.5C285.927 117.5 272.927 91.5 272.927 91.5C269.427 84 269.427 68 269.427 68C269.427 62 273.927 50 273.927 50C271.927 61.5 282.927 77.5 282.927 77.5C283.927 80 297.927 96.5 297.927 96.5C305.427 105 307.927 112.5 307.927 112.5C315.427 130.5 307.927 145 307.927 145Z" />
<path d="M114.453 59.2218L112.961 81.9457L94.0998 69.4372L114.453 59.2218Z" />
<path d="M113.837 164.046L114.644 186.805L94.6176 176.262L113.837 164.046Z" />
<rect x="2.63702" y="115.905" width="113.781" height="19.67" transform="rotate(-26.9297 2.63702 115.905)" />
<rect x="11.3053" y="113.436" width="114.237" height="19.4745" transform="rotate(26.2865 11.3053 113.436)" />
<path d="M11 123.46L2.75 130.821V116.098L11 123.46Z" />
<path d="M333.946 186.228L335.438 163.504L354.299 176.012L333.946 186.228Z" />
<path d="M334.562 81.4031L333.755 58.6446L353.781 69.187L334.562 81.4031Z" />
<rect x="445.762" y="129.545" width="113.781" height="19.67" transform="rotate(153.07 445.762 129.545)" />
<rect x="437.094" y="132.014" width="114.237" height="19.4745" transform="rotate(-153.713 437.094 132.014)" />
<path d="M437.399 121.99L445.649 114.629V129.351L437.399 121.99Z" />
</svg>
